<?xml version="1.0" encoding="UTF-8" standalone="no"?>
<!DOCTYPE svg PUBLIC "-//W3C//DTD SVG 1.1//EN" "http://www.w3.org/Graphics/SVG/1.1/DTD/svg11.dtd">
<svg width="100%" height="100%" viewBox="0 0 32 32" version="1.1" xmlns="http://www.w3.org/2000/svg" xmlns:xlink="http://www.w3.org/1999/xlink" xml:space="preserve" xmlns:serif="http://www.serif.com/" style="fill-rule:evenodd;clip-rule:evenodd;stroke-linejoin:round;stroke-miterlimit:2;">
    <g transform="matrix(0.0625,0,0,0.0625,0,0)">
        <rect x="0" y="0" width="512" height="512"/>
    </g>
    <g transform="matrix(0.016299,0,0,0.016299,7.654965,8.004386)">
        <path d="M716.1,529.1L518.6,331.7L392.1,458.2L590.6,656.8L321.3,926L573.7,926.7L843.7,656.8L843.3,656.4L955.8,543.9L828.5,416.7L716.1,529.1ZM321.3,457.2L435.9,342.6L309.4,216.1L68.2,457.2L390,779L516.5,652.5L321.3,457.2ZM597.7,181.6L470.5,54.4L343.3,181.6L470.5,308.8L597.7,181.6Z" style="fill:white;"/>
    </g>
</svg>
