<?xml version="1.0" encoding="UTF-8" standalone="no"?>
<!DOCTYPE svg PUBLIC "-//W3C//DTD SVG 1.1//EN" "http://www.w3.org/Graphics/SVG/1.1/DTD/svg11.dtd">
<svg width="100%" height="100%" viewBox="0 0 511 159" version="1.1" xmlns="http://www.w3.org/2000/svg" xmlns:xlink="http://www.w3.org/1999/xlink" xml:space="preserve" xmlns:serif="http://www.serif.com/" style="fill-rule:evenodd;clip-rule:evenodd;stroke-linejoin:round;stroke-miterlimit:2;">
    <g transform="matrix(1,0,0,1,0,2)">
        <g transform="matrix(1.39907,0,0,1.39907,-404.796,-792.817)">
            <path d="M570.609,622.871C570.609,619.216 573.572,616.252 577.227,616.252C580.882,616.252 583.845,619.216 583.845,622.871L583.845,671.866C583.845,675.521 580.882,678.484 577.227,678.484C573.572,678.484 570.609,675.521 570.609,671.866L570.609,622.871Z" style="fill:rgb(177,177,177);"/>
        </g>
        <g transform="matrix(1.31526,0,0,1.31526,-404.42,-742.89)">
            <path d="M663.836,619.696C681.354,619.696 695.577,633.919 695.577,651.437C695.577,668.956 681.354,683.178 663.836,683.178C646.317,683.178 632.095,668.956 632.095,651.437C632.095,633.919 646.317,619.696 663.836,619.696ZM663.836,632.211C653.225,632.211 644.61,640.826 644.61,651.437C644.61,662.048 653.225,670.663 663.836,670.663C674.447,670.663 683.062,662.048 683.062,651.437C683.062,640.826 674.447,632.211 663.836,632.211Z" style="fill:rgb(177,177,177);"/>
        </g>
    </g>
    <g transform="matrix(0.514397,0,0,0.514397,-6.0777,-240.31)">
        <g>
            <g transform="matrix(1,0,0,1,-3.02583,110.27)">
                <path d="M328.369,521.781C318.429,521.781 310.371,513.723 310.371,503.784L310.371,400.482C310.371,397.862 308.793,395.5 306.372,394.497C303.951,393.494 301.165,394.048 299.312,395.901L45.569,649.644C38.54,656.673 27.143,656.673 20.113,649.644C13.084,642.615 13.084,631.218 20.113,624.188L273.856,370.445C286.005,358.297 304.275,354.662 320.148,361.237C336.022,367.812 346.371,383.301 346.371,400.482L346.371,503.784C346.371,513.723 338.313,521.781 328.373,521.781L328.369,521.781Z" style="fill:white;"/>
            </g>
            <g transform="matrix(1,0,0,1,-3.02583,110.27)">
                <path d="M328.373,558.212C338.313,558.212 346.371,566.27 346.371,576.21L346.371,623.518C346.371,626.138 347.95,628.5 350.37,629.503C352.791,630.506 355.578,629.952 357.431,628.099L452.474,533.055C459.504,526.026 470.9,526.026 477.93,533.055C484.959,540.085 484.959,551.482 477.93,558.511L382.887,653.555C370.738,665.703 352.467,669.338 336.594,662.763C320.721,656.188 310.371,640.699 310.371,623.518L310.371,576.21C310.371,566.27 318.429,558.212 328.369,558.212L328.373,558.212Z" style="fill:white;"/>
            </g>
            <g transform="matrix(2.71983,0,0,2.71983,-862.243,-1112.24)">
                <path d="M491.629,692.408C489.044,694.992 484.854,694.992 482.27,692.408C479.685,689.823 479.685,685.633 482.27,683.048L524.529,640.789C528.996,636.322 535.714,634.986 541.55,637.403C547.386,639.821 551.191,645.515 551.191,651.832L551.191,687.728C551.191,691.383 548.228,694.346 544.573,694.346C540.918,694.346 537.955,691.383 537.955,687.728L537.955,651.832C537.955,650.869 537.374,650 536.484,649.632C535.594,649.263 534.57,649.467 533.889,650.148L491.629,692.408Z" style="fill:white;"/>
            </g>
            <g transform="matrix(2.71983,0,0,3.74349,-881.181,-1763.14)">
                <path d="M570.609,627.803C570.609,625.147 573.572,622.994 577.227,622.994C580.882,622.994 583.845,625.147 583.845,627.803L583.845,673.543C583.845,676.199 580.882,678.352 577.227,678.352C573.572,678.352 570.609,676.199 570.609,673.543L570.609,627.803Z" style="fill:white;"/>
            </g>
            <g transform="matrix(2.71983,0,0,2.71983,-881.181,-996.868)">
                <path d="M577.227,609.219C573.572,609.219 570.609,606.256 570.609,602.601C570.609,598.946 573.572,595.983 577.227,595.983L593.439,595.983C597.094,595.983 600.057,598.946 600.057,602.601C600.057,606.256 597.094,609.219 593.439,609.219L577.227,609.219Z" style="fill:white;"/>
            </g>
        </g>
    </g>
</svg>
